<?xml version="1.0" encoding="UTF-8"?>
<svg width="60px" height="86px" viewBox="0 0 60 86" version="1.1" xmlns="http://www.w3.org/2000/svg" xmlns:xlink="http://www.w3.org/1999/xlink">
    <!-- Generator: Sketch 45.2 (43514) - http://www.bohemiancoding.com/sketch -->
    <title>forms</title>
    <desc>Created with Sketch.</desc>
    <defs></defs>
    <g id="Page-1" stroke="none" stroke-width="1" fill="none" fill-rule="evenodd">
        <g id="Artboard" transform="translate(-167.000000, -41.000000)" fill-rule="nonzero" fill="#FFFFFF">
            <g id="forms" transform="translate(167.925926, 41.000000)">
                <g id="Group">
                    <path d="M49.5765,85.0755 L9.504,85.0755 C4.263,85.0755 0,80.8125 0,75.573 L0,17.838 C0,12.5985 4.263,8.337 9.504,8.337 L18.291,8.337 C18.879,8.337 19.356,8.814 19.356,9.402 C19.356,9.99 18.879,10.467 18.291,10.467 L9.504,10.467 C5.4375,10.467 2.1315,13.7745 2.1315,17.838 L2.1315,75.573 C2.1315,79.638 5.4375,82.944 9.504,82.944 L49.5765,82.944 C53.6415,82.944 56.949,79.638 56.949,75.573 L56.949,17.838 C56.949,13.7745 53.6415,10.467 49.5765,10.467 L40.791,10.467 C40.2,10.467 39.723,9.99 39.723,9.402 C39.723,8.814 40.2,8.337 40.791,8.337 L49.5765,8.337 C54.8175,8.337 59.0775,12.5985 59.0775,17.838 L59.0775,75.573 C59.0775,80.8125 54.8175,85.0755 49.5765,85.0755" id="Shape"></path>
                    <path d="M21.3045,6.576 C20.232,6.576 19.356,7.4475 19.356,8.523 L19.356,14.9505 C19.356,16.0245 20.232,16.8975 21.3045,16.8975 L37.776,16.8975 C38.85,16.8975 39.723,16.0245 39.723,14.9505 L39.723,8.523 C39.723,7.4475 38.85,6.576 37.776,6.576 L33.984,6.576 C33.396,6.576 32.9175,6.0975 32.9175,5.5095 C32.9175,3.6465 31.4025,2.1315 29.541,2.1315 C27.6795,2.1315 26.163,3.6465 26.163,5.5095 C26.163,6.0975 25.6845,6.576 25.098,6.576 L21.3045,6.576 Z M37.776,19.029 L21.3045,19.029 C19.0545,19.029 17.226,17.199 17.226,14.9505 L17.226,8.523 C17.226,6.273 19.0545,4.443 21.3045,4.443 L24.135,4.443 C24.633,1.914 26.868,0 29.541,0 C32.214,0 34.4475,1.914 34.9455,4.443 L37.776,4.443 C40.0245,4.443 41.8545,6.273 41.8545,8.523 L41.8545,14.9505 C41.8545,17.199 40.0245,19.029 37.776,19.029 L37.776,19.029 Z" id="Shape"></path>
                    <path d="M51.987,78.174 L7.0905,78.174 C6.7965,78.174 6.5595,77.9355 6.5595,77.6415 L6.5595,14.7495 C6.5595,14.4555 6.7965,14.217 7.0905,14.217 L18.2925,14.217 C18.585,14.217 18.8235,14.4555 18.8235,14.7495 C18.8235,15.0435 18.585,15.282 18.2925,15.282 L7.6245,15.282 L7.6245,77.109 L51.4545,77.109 L51.4545,15.282 L40.2135,15.282 C39.918,15.282 39.6825,15.0435 39.6825,14.7495 C39.6825,14.4555 39.918,14.217 40.2135,14.217 L51.987,14.217 C52.281,14.217 52.5195,14.4555 52.5195,14.7495 L52.5195,77.6415 C52.5195,77.9355 52.281,78.174 51.987,78.174" id="Shape"></path>
                    <path d="M44.0805,28.8105 L21.5835,28.8105 C21.2895,28.8105 21.051,28.572 21.051,28.278 C21.051,27.984 21.2895,27.7455 21.5835,27.7455 L44.0805,27.7455 C44.376,27.7455 44.613,27.984 44.613,28.278 C44.613,28.572 44.376,28.8105 44.0805,28.8105" id="Shape"></path>
                    <path d="M44.0805,40.755 L21.5835,40.755 C21.2895,40.755 21.051,40.5165 21.051,40.2225 C21.051,39.9285 21.2895,39.69 21.5835,39.69 L44.0805,39.69 C44.376,39.69 44.613,39.9285 44.613,40.2225 C44.613,40.5165 44.376,40.755 44.0805,40.755" id="Shape"></path>
                    <path d="M44.0805,52.6995 L21.5835,52.6995 C21.2895,52.6995 21.051,52.461 21.051,52.167 C21.051,51.873 21.2895,51.6345 21.5835,51.6345 L44.0805,51.6345 C44.376,51.6345 44.613,51.873 44.613,52.167 C44.613,52.461 44.376,52.6995 44.0805,52.6995" id="Shape"></path>
                    <path d="M44.0805,64.644 L21.5835,64.644 C21.2895,64.644 21.051,64.4055 21.051,64.1115 C21.051,63.8175 21.2895,63.579 21.5835,63.579 L44.0805,63.579 C44.376,63.579 44.613,63.8175 44.613,64.1115 C44.613,64.4055 44.376,64.644 44.0805,64.644" id="Shape"></path>
                    <path d="M17.172,28.278 C17.172,28.878 16.6875,29.364 16.0845,29.364 C15.486,29.364 15,28.878 15,28.278 C15,27.678 15.486,27.192 16.0845,27.192 C16.6875,27.192 17.172,27.678 17.172,28.278" id="Shape"></path>
                    <path d="M17.172,40.2225 C17.172,40.8225 16.6875,41.3085 16.0845,41.3085 C15.486,41.3085 15,40.8225 15,40.2225 C15,39.6225 15.486,39.1365 16.0845,39.1365 C16.6875,39.1365 17.172,39.6225 17.172,40.2225" id="Shape"></path>
                    <path d="M17.172,52.167 C17.172,52.767 16.6875,53.253 16.0845,53.253 C15.486,53.253 15,52.767 15,52.167 C15,51.567 15.486,51.081 16.0845,51.081 C16.6875,51.081 17.172,51.567 17.172,52.167" id="Shape"></path>
                    <path d="M17.172,64.1115 C17.172,64.7115 16.6875,65.1975 16.0845,65.1975 C15.486,65.1975 15,64.7115 15,64.1115 C15,63.5115 15.486,63.0255 16.0845,63.0255 C16.6875,63.0255 17.172,63.5115 17.172,64.1115" id="Shape"></path>
                </g>
            </g>
        </g>
    </g>
</svg>