<svg xmlns="http://www.w3.org/2000/svg" xmlns:xlink="http://www.w3.org/1999/xlink" viewBox="0 0 24 30" version="1.1" x="0px" y="0px"><title>map_036-location-place-position-pin</title><desc>Created with Sketch.</desc><g stroke="none" stroke-width="1" fill="none" fill-rule="evenodd"><g transform="translate(-285.000000, -189.000000)" fill="#fff"><g transform="translate(286.000000, 189.000000)"><path d="M8,10.9536597 L8,19.5 C8,19.7000141 7.88080157,19.8807831 7.69695965,19.9595725 L0.696959649,22.9595725 C0.367025439,23.1009729 0,22.8589577 0,22.5 L0,6.5 C0,6.29998595 0.119198427,6.11921688 0.303040351,6.04042748 L6.82725401,3.24433592 C6.55338554,3.65820593 6.33944183,4.11519728 6.1977908,4.60294205 L1.00000003,6.82452393 L1.00000003,21.7434692 L6.99999985,19.1600037 L6.99999985,9.44313643 C7.2805974,9.94747887 7.61582519,10.4517833 8,10.9536597 Z"/><path d="M7,9.4431367 L7,19.5 C7,19.7000141 7.11919843,19.8807831 7.30304035,19.9595725 L14.3030404,22.9595725 C14.6329746,23.1009729 15,22.8589577 15,22.5 L15,9.4431367 C14.7194025,9.94747906 14.3841747,10.4517835 14,10.9536598 L14,21.7434692 L8.00000015,19.1600037 L8.00000015,10.9536599 C7.61582535,10.4517836 7.28059756,9.94747912 7,9.4431367 Z"/><path d="M14,10.9536597 L14,22.5 C14,22.8589577 14.3670254,23.1009729 14.6969596,22.9595725 L21.6969596,19.9595725 C21.8808016,19.8807831 22,19.7000141 22,19.5 L22,3.5 C22,3.14104227 21.6329746,2.89902711 21.3030404,3.04042748 L15.9557798,5.33211057 C15.9849445,5.55059311 16,5.77353835 16,6 C16,6.13411639 15.9949703,6.26863755 15.9850261,6.40351505 L20.9999998,4.26007079 L20.9999998,19.1600037 L15,21.7434692 L15,9.44313666 C14.7194025,9.94747902 14.3841747,10.4517834 14,10.9536597 Z"/><path d="M11.5470695,14.8522391 C11.7410443,14.6983615 11.9565403,14.5194736 12.188221,14.3171941 C12.8491503,13.7401393 13.5098436,13.0894692 14.1276453,12.3774966 C15.9178419,10.3144221 17,8.16046413 17,6 C17,2.6862915 14.3137085,0 11,0 C7.6862915,0 5,2.6862915 5,6 C5,8.16046413 6.08215812,10.3144221 7.87235472,12.3774966 C8.4901564,13.0894692 9.15084967,13.7401393 9.81177904,14.3171941 C10.0434597,14.5194736 10.2589557,14.6983615 10.4529305,14.8522391 C10.5707977,14.9457416 10.6563665,15.0108905 10.7042929,15.0460411 C10.8802989,15.1751291 11.1197011,15.1751291 11.2957071,15.0460411 C11.3436335,15.0108905 11.4292023,14.9457416 11.5470695,14.8522391 Z M10.469471,13.5639071 C9.84133783,13.0154865 9.2129686,12.3966501 8.62764528,11.7221065 C6.98034188,9.82370624 6,7.87240623 6,6 C6,3.23857625 8.23857625,1 11,1 C13.7614237,1 16,3.23857625 16,6 C16,7.87240623 15.0196581,9.82370624 13.3723547,11.7221065 C12.7870314,12.3966501 12.1586622,13.0154865 11.530529,13.5639071 C11.3273298,13.7413195 11.0030149,14.0079179 11.0030149,14.0079179 C11.0030149,14.0079179 10.8448827,13.8916775 10.469471,13.5639071 Z"/><path d="M11,9 C12.6568542,9 14,7.65685425 14,6 C14,4.34314575 12.6568542,3 11,3 C9.34314575,3 8,4.34314575 8,6 C8,7.65685425 9.34314575,9 11,9 Z M11,8 C12.1045695,8 13,7.1045695 13,6 C13,4.8954305 12.1045695,4 11,4 C9.8954305,4 9,4.8954305 9,6 C9,7.1045695 9.8954305,8 11,8 Z"/></g></g></g><text x="0" y="39" fill="#000000" font-size="5px" font-weight="bold" font-family="'Helvetica Neue', Helvetica, Arial-Unicode, Arial, Sans-serif">Created by Pham Thi Dieu Linh</text><text x="0" y="44" fill="#000000" font-size="5px" font-weight="bold" font-family="'Helvetica Neue', Helvetica, Arial-Unicode, Arial, Sans-serif">from the Noun Project</text></svg>