<?xml version="1.0" encoding="UTF-8"?>
<svg width="60px" height="63px" viewBox="0 0 60 63" version="1.1" xmlns="http://www.w3.org/2000/svg" xmlns:xlink="http://www.w3.org/1999/xlink">
    <!-- Generator: Sketch 45.2 (43514) - http://www.bohemiancoding.com/sketch -->
    <title>map</title>
    <desc>Created with Sketch.</desc>
    <defs></defs>
    <g id="Page-1" stroke="none" stroke-width="1" fill="none" fill-rule="evenodd">
        <g id="Artboard" transform="translate(-15.000000, -47.000000)" fill-rule="nonzero" fill="#FFFFFF">
            <g id="map" transform="translate(15.000000, 47.000000)">
                <g id="Group">
                    <g id="Shape">
                        <g>
                            <path d="M21.8181818,29.8736174 L21.8181818,53.1818182 C21.8181818,53.7273112 21.4930952,54.2203175 20.9917081,54.4351977 L1.90079904,62.6170159 C1.00097847,63.0026534 0,62.3426119 0,61.3636364 L0,17.7272727 C0,17.1817799 0.325086619,16.6887733 0.826473685,16.4738931 L18.6197837,8.84818887 C17.8728697,9.97692526 17.2893868,11.2232653 16.9030658,12.5534783 L2.72727281,18.612338 L2.72727281,59.3003705 L19.0909087,52.2545555 L19.0909087,25.7540084 C19.8561747,27.1294878 20.7704323,28.5048635 21.8181818,29.8736174 Z"></path>
                            <path d="M19.0909091,25.7540092 L19.0909091,53.1818182 C19.0909091,53.7273112 19.4159957,54.2203175 19.9173828,54.4351977 L39.008292,62.6170159 C39.9081125,63.0026534 40.9090909,62.3426119 40.9090909,61.3636364 L40.9090909,25.7540092 C40.143825,27.1294883 39.2295674,28.5048641 38.1818182,29.8736176 L38.1818182,59.3003705 L21.8181822,52.2545555 L21.8181822,29.8736179 C20.7704328,28.5048644 19.8561752,27.1294885 19.0909091,25.7540092 Z"></path>
                            <path d="M38.1818182,29.8736174 L38.1818182,61.3636364 C38.1818182,62.3426119 39.1827965,63.0026534 40.0826171,62.6170159 L59.1735262,54.4351977 C59.6749135,54.2203175 60,53.7273112 60,53.1818182 L60,9.54545455 C60,8.56647892 58.9990216,7.90643757 58.0992011,8.29207495 L43.5157631,14.5421197 C43.5953032,15.1379812 43.6363636,15.7460137 43.6363636,16.3636364 C43.6363636,16.7294083 43.6226463,17.0962842 43.5955257,17.464132 L57.2727267,11.6183749 L57.2727267,52.2545555 L40.9090909,59.3003705 L40.9090909,25.7540091 C40.143825,27.1294882 39.2295674,28.5048638 38.1818182,29.8736174 Z"></path>
                            <path d="M31.4920077,40.5061066 C32.0210299,40.0864405 32.6087463,39.5985644 33.2406027,39.046893 C35.0431372,37.4731072 36.845028,35.6985524 38.5299417,33.7568089 C43.4122961,28.1302421 46.3636364,22.2558113 46.3636364,16.3636364 C46.3636364,7.32624955 39.0373868,0 30,0 C20.9626132,0 13.6363636,7.32624955 13.6363636,16.3636364 C13.6363636,22.2558113 16.587704,28.1302421 21.4700583,33.7568089 C23.154972,35.6985524 24.9568627,37.4731072 26.7593974,39.046893 C27.3912537,39.5985644 27.9789701,40.0864405 28.5079923,40.5061066 C28.8294483,40.7611135 29.0628177,40.9387923 29.1935261,41.0346575 C29.6735425,41.3867157 30.3264575,41.3867157 30.8064739,41.0346575 C30.9371823,40.9387923 31.1705517,40.7611135 31.4920077,40.5061066 Z M28.5531027,36.9924739 C26.8400123,35.4967814 25.126278,33.8090457 23.5299417,31.9693814 C19.037296,26.7919261 16.3636364,21.4701988 16.3636364,16.3636364 C16.3636364,8.83248068 22.4688443,2.72727273 30,2.72727273 C37.5311555,2.72727273 43.6363636,8.83248068 43.6363636,16.3636364 C43.6363636,21.4701988 40.9627039,26.7919261 36.4700583,31.9693814 C34.873722,33.8090457 33.1599878,35.4967814 31.4468973,36.9924739 C30.8927176,37.4763259 30.0082225,38.2034125 30.0082225,38.2034125 C30.0082225,38.2034125 29.5769528,37.8863932 28.5531027,36.9924739 Z"></path>
                            <path d="M30,24.5454545 C34.5186933,24.5454545 38.1818182,20.8823298 38.1818182,16.3636364 C38.1818182,11.844943 34.5186933,8.18181818 30,8.18181818 C25.4813066,8.18181818 21.8181818,11.844943 21.8181818,16.3636364 C21.8181818,20.8823298 25.4813066,24.5454545 30,24.5454545 Z M30,21.8181818 C33.0124623,21.8181818 35.4545455,19.3760986 35.4545455,16.3636364 C35.4545455,13.3511741 33.0124623,10.9090909 30,10.9090909 C26.9875377,10.9090909 24.5454545,13.3511741 24.5454545,16.3636364 C24.5454545,19.3760986 26.9875377,21.8181818 30,21.8181818 Z"></path>
                        </g>
                    </g>
                </g>
            </g>
        </g>
    </g>
</svg>