<?xml version="1.0" encoding="UTF-8"?>
<svg width="61px" height="54px" viewBox="0 0 61 54" version="1.1" xmlns="http://www.w3.org/2000/svg" xmlns:xlink="http://www.w3.org/1999/xlink">
    <!-- Generator: Sketch 45.2 (43514) - http://www.bohemiancoding.com/sketch -->
    <title>message</title>
    <desc>Created with Sketch.</desc>
    <defs></defs>
    <g id="Page-1" stroke="none" stroke-width="1" fill="none" fill-rule="evenodd">
        <g id="Artboard" transform="translate(-97.000000, -57.000000)" fill-rule="nonzero" fill="#FFFFFF">
            <g id="message" transform="translate(97.962963, 57.000000)">
                <g id="Group">
                    <circle id="Oval" cx="30.7333333" cy="27.8666667" r="2"></circle>
                    <circle id="Oval" cx="21.8" cy="27.8666667" r="2"></circle>
                    <circle id="Oval" cx="12.8666667" cy="27.8666667" r="2"></circle>
                    <path d="M7.33333333,44.2 L20.8,44.2 L36,53.2666667 L35.2666667,44.2666667 L36.2666667,44.2666667 C40.1333333,44.2666667 43.3333333,41.2666667 43.6,37.4666667 L52.4,42.6666667 L51.6666667,33.6666667 L52.6666667,33.6666667 C56.7333333,33.6666667 60,30.4 60,26.3333333 L60,7.46666667 C60,3.4 56.7333333,0.133333333 52.6666667,0.133333333 L23.7333333,0.133333333 C19.6666667,0.133333333 16.4,3.4 16.4,7.46666667 L16.4,10.6666667 L7.33333333,10.6666667 C3.26666667,10.6666667 0,14 0,18 L0,36.8666667 C0,40.9333333 3.26666667,44.2 7.33333333,44.2 Z M19.1333333,7.46666667 C19.1333333,4.93333333 21.2,2.86666667 23.7333333,2.86666667 L52.6666667,2.86666667 C55.2,2.86666667 57.2666667,4.93333333 57.2666667,7.46666667 L57.2666667,26.3333333 C57.2666667,28.8666667 55.2,30.9333333 52.6666667,30.9333333 L48.7333333,30.9333333 L49.2666667,37.6666667 L43.6,34.3333333 L43.6,18 C43.6,13.9333333 40.3333333,10.6666667 36.2666667,10.6666667 L19.1333333,10.6666667 L19.1333333,7.46666667 Z M2.73333333,18 C2.73333333,15.4666667 4.8,13.4 7.33333333,13.4 L36.2666667,13.4 C38.8,13.4 40.8666667,15.4666667 40.8666667,18 L40.8666667,36.8666667 C40.8666667,39.4 38.8,41.4666667 36.2666667,41.4666667 L32.3333333,41.4666667 L32.8666667,48.2 L21.5333333,41.4666667 L7.33333333,41.4666667 C4.8,41.4666667 2.73333333,39.4 2.73333333,36.8666667 L2.73333333,18 Z" id="Shape"></path>
                </g>
            </g>
        </g>
    </g>
</svg>