<?xml version="1.0" encoding="UTF-8"?>
<svg width="14px" height="22px" viewBox="0 0 14 22" version="1.1" xmlns="http://www.w3.org/2000/svg" xmlns:xlink="http://www.w3.org/1999/xlink" id="phoneIcon">
    <!-- Generator: Sketch 45.2 (43514) - http://www.bohemiancoding.com/sketch -->
    <title>phone</title>
    <desc>Created with Sketch.</desc>
    <defs></defs>
    <g id="Page-1" stroke="none" stroke-width="1" fill="none" fill-rule="evenodd">
        <g id="Artboard" transform="translate(-47.000000, -28.000000)" fill-rule="nonzero" fill="#FFFFFF">
            <g id="phone" transform="translate(47.000000, 28.000000)">
                <path d="M11.6518519,0.211851852 L1.38518519,0.211851852 C0.635168858,0.211851852 0.0271604938,0.819860216 0.0271604938,1.56987654 L0.0271604938,20.46 C0.0271604938,21.2100163 0.635168858,21.8180247 1.38518519,21.8180247 L11.6518519,21.8180247 C12.4018682,21.8180247 13.0098765,21.2100163 13.0098765,20.46 L13.0098765,1.56987654 C13.0098765,0.819860216 12.4018682,0.211851852 11.6518519,0.211851852 Z M12.4666667,20.462716 C12.4666667,20.9127258 12.1018616,21.2775309 11.6518519,21.2775309 L1.38518519,21.2775309 C0.935175389,21.2775309 0.57037037,20.9127258 0.57037037,20.462716 L0.57037037,17.1790123 L12.4666667,17.1790123 L12.4666667,20.46 L12.4666667,20.462716 Z M12.4666667,16.6385185 L0.57037037,16.6385185 L0.57037037,1.56987654 C0.57037037,1.11986675 0.935175389,0.755061728 1.38518519,0.755061728 L11.6518519,0.755061728 C12.1018616,0.755061728 12.4666667,1.11986675 12.4666667,1.56987654 L12.4666667,16.6358025 L12.4666667,16.6385185 Z M7.97975309,2.17283951 C7.97975309,2.32284277 7.85815141,2.44444444 7.70814815,2.44444444 L5.33160494,2.44444444 C5.18160167,2.44444444 5.06,2.32284277 5.06,2.17283951 C5.06,2.02283624 5.18160167,1.90123457 5.33160494,1.90123457 L7.70814815,1.90123457 C7.85815141,1.90123457 7.97975309,2.02283624 7.97975309,2.17283951 Z M6.51851852,20.4437037 C7.15903246,20.4437037 7.6782716,19.9244646 7.6782716,19.2839506 C7.6782716,18.6434367 7.15903246,18.1241975 6.51851852,18.1241975 C5.87800458,18.1241975 5.35876543,18.6434367 5.35876543,19.2839506 C5.35876543,19.9244646 5.87800458,20.4437037 6.51851852,20.4437037 Z M6.51851852,18.6674074 C6.85902593,18.6674074 7.13506173,18.9434432 7.13506173,19.2839506 C7.13506173,19.624458 6.85902593,19.9004938 6.51851852,19.9004938 C6.17801111,19.9004938 5.90197531,19.624458 5.90197531,19.2839506 C5.90197531,18.9434432 6.17801111,18.6674074 6.51851852,18.6674074 L6.51851852,18.6674074 Z" id="Shape"></path>
            </g>
        </g>
    </g>
</svg>