<?xml version="1.0" encoding="UTF-8"?>
<svg width="17px" height="22px" viewBox="0 0 17 22" version="1.1" xmlns="http://www.w3.org/2000/svg" xmlns:xlink="http://www.w3.org/1999/xlink">
    <!-- Generator: Sketch 45.2 (43514) - http://www.bohemiancoding.com/sketch -->
    <title>pin</title>
    <desc>Created with Sketch.</desc>
    <defs></defs>
    <g id="Page-1" stroke="none" stroke-width="1" fill="none" fill-rule="evenodd">
        <g id="pin" fill-rule="nonzero" fill="#4A4A4A">
            <path d="M8.25,0 C3.7008125,0 0,3.7008125 0,8.25 C0,16.779125 7.5590625,21.687875 7.8808125,21.89275 C8.105625,22.03575 8.394375,22.03575 8.6191875,21.89275 C8.9409375,21.687875 16.5,16.779125 16.5,8.25 C16.5,3.7008125 12.7991875,0 8.25,0 Z M8.25,20.4744375 C6.7725625,19.3936875 1.375,14.9840625 1.375,8.25 C1.375,4.459125 4.459125,1.375 8.25,1.375 C12.040875,1.375 15.125,4.459125 15.125,8.25 C15.125,14.9840625 9.72675,19.3936875 8.25,20.4744375 Z M8.25,4.8125 C6.3545625,4.8125 4.8125,6.3545625 4.8125,8.25 C4.8125,10.1454375 6.3545625,11.6875 8.25,11.6875 C10.1454375,11.6875 11.6875,10.1454375 11.6875,8.25 C11.6875,6.3545625 10.1454375,4.8125 8.25,4.8125 Z M8.25,10.3125 C7.112875,10.3125 6.1875,9.387125 6.1875,8.25 C6.1875,7.112875 7.112875,6.1875 8.25,6.1875 C9.387125,6.1875 10.3125,7.112875 10.3125,8.25 C10.3125,9.387125 9.387125,10.3125 8.25,10.3125 Z" id="Shape"></path>
        </g>
    </g>
</svg>